<?xml version="1.0" encoding="utf-8"?>
<!-- Generator: Adobe Illustrator 14.0.0, SVG Export Plug-In . SVG Version: 6.00 Build 43363)  -->
<!DOCTYPE svg PUBLIC "-//W3C//DTD SVG 1.1//EN" "http://www.w3.org/Graphics/SVG/1.1/DTD/svg11.dtd">
<svg version="1.1" id="Layer_1" xmlns="http://www.w3.org/2000/svg" xmlns:xlink="http://www.w3.org/1999/xlink" x="0px" y="0px"
	 width="559.999px" height="87px" viewBox="0 0 559.999 87" enable-background="new 0 0 559.999 87" xml:space="preserve">
<g>
	<path fill="#E31B23" d="M378.297,56.025l9.84-30.113h3.064l9.514,30.113H378.297L378.297,56.025z M383.581,52.011h11.574
		l-5.689-18.167l0,0L383.581,52.011L383.581,52.011z"/>
	<path fill="#E31B23" d="M530.723,32.039c-10.455-2.631-14.5-3.931-14.5-6.156c0-2.383,3.57-2.812,5.75-2.75
		c4.496,0.133,8.719,1.312,8.719,5.062C530.692,29.279,530.723,32.039,530.723,32.039z M523.264,83.323
		c-15.307,0-29.029-6.39-32.066-21.073c-2.002,14.336-14.258,19.354-29.016,19.354h-55.066l-5.609-12.79H377.17L371.452,81.5
		h-69.627V6.258h19.631v58.224h36.105l21.91-58.412h19.943l26.574,70.333V5.883h35.242c12.977-0.209,27.225,3.527,27.225,19.188
		c0,6.728-4.01,12.189-9.92,15.133c7.418,2.141,12.209,7.816,12.887,15.226h18.762c0.42,9.057,5.453,11.953,13.789,11.953
		c5.908,0,12.484-2.162,12.484-7.732c0-6.619-10.762-7.881-21.633-10.928c-10.764-3.047-22.053-7.466-22.053-21.236
		c0-16.394,16.568-24.22,30.705-24.22c14.984,0,30.182,7.058,30.182,25.586h-19.627c0.318-6.829-6.121-9.036-12.139-9.036
		c-4.217,0-9.492,1.471-9.492,6.409c0,5.781,10.863,6.833,21.842,9.881c10.869,3.046,21.842,8.092,21.842,21.647
		C556.084,76.775,539.834,83.323,523.264,83.323L523.264,83.323z M511.723,51.591c8.5,1.865,21.082,3.957,21.082,8.145
		c0,3.916-7.27,5.375-12.895,3.959c-3.43-0.863-5.062-2.875-5.688-4.625c-0.715-2.002-0.5-7.113-0.5-7.113l-19.562-0.031
		c-0.543-4.814-5.422-10.033-8.531-12.105c1.553-1.814,3.875-3.141,4.656-6.25C490.286,42.383,502.223,49.507,511.723,51.591z
		 M534.614,32.794h23.252C557.866,20.857,555.487,0,523.178,0c-19.354,0-28.16,10.592-31.91,17.273
		c-3.51-6.682-5.582-15.439-32.371-15.439h-36.803v52.107L402.85,1.825h-25.748l-22.793,59.45h-28.541V1.834h-28.33l-0.051,83.44
		h76.93l4.957-12.306h20.217l4.756,12.29l62.258,0.031c11.107-0.197,21.668-5.129,24.82-12.884
		C494.315,80.161,504.547,87,524.766,87c20.217,0,35.232-11.442,35.232-27.616c0-16.45-12.088-23.876-25.775-26.58L534.614,32.794z"
		/>
	<polyline fill="#E31B23" points="71.75,20.556 46.779,20.556 46.779,85.247 24.972,85.247 24.972,20.556 0,20.556 0,1.873 
		71.75,1.873 71.75,20.556 	"/>
	<polyline fill="#E31B23" points="69.4,1.873 91.205,1.873 91.205,32.233 119.93,32.233 119.93,1.873 141.737,1.873 141.737,85.247 
		119.93,85.247 119.93,50.914 91.205,50.914 91.205,85.247 69.4,85.247 69.4,1.873 	"/>
	<path fill="#E31B23" d="M182.883,68.314c14.071,0,19.461-12.379,19.461-24.755c0-12.377-5.39-24.754-19.461-24.754
		c-14.07,0-19.461,12.377-19.461,24.754C163.422,55.935,168.813,68.314,182.883,68.314L182.883,68.314z M182.883,0.122
		c26.38,0,41.403,19.198,41.403,43.571c0,24.708-15.022,43.301-41.403,43.301c-26.378,0-41.267-19.267-41.267-43.436
		C141.616,19.389,156.505,0.122,182.883,0.122"/>
	<path fill="#E31B23" d="M246.056,38.094h18.29c6.565,0,10.081-3.5,10.081-9.805c0-6.188-4.921-8.992-11.019-8.992h-17.352V38.094
		L246.056,38.094z M224.249,1.898h42.677c14.771,0,29.31,6.656,29.31,23.469c0,8.992-4.34,17.516-13.133,20.9v0.234
		c8.914,2.104,11.494,12.029,12.197,19.969c0.23,3.502,0.584,15.765,3.516,18.802h-21.574c-1.873-2.805-2.226-10.978-2.461-13.312
		c-0.586-8.41-1.992-17.051-12.19-17.051h-16.534v30.362h-21.932V1.898"/>
	<path fill="#E31B23" d="M443.954,20.279h17.469c4.736,0,9.223,2.264,9.223,9.179c0,6.782-5.336,9.045-9.223,9.045h-17.469V20.279
		L443.954,20.279z M447.778,24.277v10.518h12.193c2.713,0,6.436-1.306,6.436-5.221c0-3.99-3.133-5.297-6.436-5.297H447.778
		L447.778,24.277z"/>
	<path fill="#E31B23" d="M443.954,47.218h19.404c5.258,0,10.24,2.607,10.24,10.576c0,7.818-5.926,10.426-10.24,10.426h-19.404
		V47.218L443.954,47.218z M447.676,51.128v13.514h14.57c3.24,0,7.689-1.676,7.689-6.707c0-5.127-3.74-6.807-7.689-6.807H447.676
		L447.676,51.128z"/>
</g>
</svg>
