<svg width="390" height="39" viewBox="0 0 390 39" fill="none" xmlns="http://www.w3.org/2000/svg">
<path d="M10.2461 38.9883H1.76074L39.7607 0.988251H48.2461L10.2461 38.9883Z" fill="white"/>
<path d="M27.2158 38.9883H18.7314L56.7314 0.988251H65.2158L27.2158 38.9883Z" fill="white"/>
<path d="M44.1865 38.9883H35.7021L73.7021 0.988251H82.1865L44.1865 38.9883Z" fill="white"/>
<path d="M61.1572 38.9883H52.6719L90.6719 0.988251H99.1572L61.1572 38.9883Z" fill="white"/>
<path d="M78.1279 38.9883H69.6426L107.643 0.988251H116.128L78.1279 38.9883Z" fill="white"/>
<path d="M95.0977 38.9883H86.6143L124.614 0.988251H133.098L95.0977 38.9883Z" fill="white"/>
<path d="M112.069 38.9883H103.584L141.584 0.988251H150.069L112.069 38.9883Z" fill="white"/>
<path d="M129.04 38.9883H120.555L158.555 0.988251H167.04L129.04 38.9883Z" fill="white"/>
<path d="M146.011 38.9883H137.525L175.525 0.988251H184.011L146.011 38.9883Z" fill="white"/>
<path d="M162.98 38.9883H154.495L192.495 0.988251H200.98L162.98 38.9883Z" fill="white"/>
<path d="M179.951 38.9883H171.466L209.466 0.988251H217.951L179.951 38.9883Z" fill="white"/>
<path d="M196.923 38.9883H188.437L226.437 0.988251H234.922L196.923 38.9883Z" fill="white"/>
<path d="M213.893 38.9883H205.407L243.407 0.988251H251.893L213.893 38.9883Z" fill="white"/>
<path d="M230.862 38.9883H222.378L260.378 0.988251H268.862L230.862 38.9883Z" fill="white"/>
<path d="M247.833 38.9883H239.349L277.349 0.988251H285.833L247.833 38.9883Z" fill="white"/>
<path d="M264.804 38.9883H256.319L294.319 0.988251H302.804L264.804 38.9883Z" fill="white"/>
<path d="M281.774 38.9883H273.289L311.289 0.988251H319.774L281.774 38.9883Z" fill="white"/>
<path d="M298.745 38.9883H290.261L328.261 0.988251H336.745L298.745 38.9883Z" fill="white"/>
<path d="M315.716 38.9883H307.23L345.23 0.988251H353.716L315.716 38.9883Z" fill="white"/>
<path d="M332.687 38.9883H324.202L362.202 0.988251H370.687L332.687 38.9883Z" fill="white"/>
<path d="M349.657 38.9883H341.171L379.171 0.988251H387.657L349.657 38.9883Z" fill="white"/>
<path d="M389.209 16.4072L366.628 38.9883H358.142L389.209 7.92087V16.4072Z" fill="white"/>
<path d="M389.209 33.3769L383.598 38.9883H375.112L389.209 24.8916V33.3769Z" fill="white"/>
<path d="M0.208984 32.0537V23.5683L22.7891 0.988251H31.2754L0.208984 32.0537Z" fill="white"/>
<path d="M0.208984 15.084V6.5986L5.81934 0.988251H14.3047L0.208984 15.084Z" fill="white"/>
</svg>
